<svg width="22" height="22" viewBox="0 0 22 22" fill="none" xmlns="http://www.w3.org/2000/svg">
<path d="M3.32071 22L8.25563 6.13953C8.39158 5.73023 8.70426 5.41473 9.19368 5.19302C9.68309 4.97132 10.1997 4.86047 10.7435 4.86047C11.2873 4.86047 11.7971 4.93721 12.2729 5.0907C12.7487 5.24419 13.1362 5.46589 13.4353 5.75581L15.0259 7.39302C15.5425 7.93876 16.2562 8.42481 17.167 8.85116C18.0779 9.27752 19.1451 9.61008 20.3686 9.84884V7.93023H22V22H20.3686V11.4093C18.9819 11.2217 17.6768 10.8891 16.4533 10.4116C15.2298 9.93411 14.1422 9.34574 13.1906 8.64651L12.0078 12.3558L15.4745 14.4279V22H13.0274V15.7581L8.94897 13.3279L5.93092 22H3.32071ZM4.01405 11.6907L0.955215 11.3326C0.683319 11.2984 0.445409 11.1876 0.241487 11C0.0375646 10.8124 -0.0372069 10.6248 0.0171724 10.4372L1.24071 6.42093C1.37665 5.92636 1.7709 5.5469 2.42346 5.28256C3.07601 5.01822 3.79653 4.92868 4.58503 5.01395L6.05327 5.19302L4.01405 11.6907ZM13.4353 3.73488C12.6196 3.73488 11.9194 3.55155 11.3349 3.18488C10.7503 2.81822 10.458 2.37907 10.458 1.86744C10.458 1.35581 10.7503 0.916667 11.3349 0.55C11.9194 0.183333 12.6196 0 13.4353 0C14.2509 0 14.9511 0.183333 15.5357 0.55C16.1202 0.916667 16.4125 1.35581 16.4125 1.86744C16.4125 2.37907 16.1202 2.81822 15.5357 3.18488C14.9511 3.55155 14.2509 3.73488 13.4353 3.73488Z" fill="#B9B9B9"/>
</svg>
