<svg width="31" height="31" viewBox="0 0 31 31" fill="none" xmlns="http://www.w3.org/2000/svg">
<g clip-path="url(#clip0_65_312)">
<path d="M30.6978 15.8571C30.6978 14.8034 30.6124 13.7441 30.4302 12.7075H15.8101V18.6763H24.1823C23.8349 20.6013 22.7186 22.3042 21.084 23.3864V27.2592H26.0789C29.012 24.5596 30.6978 20.5729 30.6978 15.8571Z" fill="#4285F4"/>
<path d="M15.8099 31.001C19.9903 31.001 23.5158 29.6285 26.0844 27.2592L21.0896 23.3863C19.6999 24.3317 17.9058 24.8671 15.8156 24.8671C11.7719 24.8671 8.34327 22.139 7.11307 18.4712H1.95874V22.4637C4.59001 27.6977 9.94937 31.001 15.8099 31.001Z" fill="#34A853"/>
<path d="M7.10751 18.4712C6.45823 16.5461 6.45823 14.4616 7.10751 12.5366V8.54413H1.95887C-0.239546 12.9239 -0.239546 18.0839 1.95887 22.4637L7.10751 18.4712Z" fill="#FBBC04"/>
<path d="M15.8099 6.13498C18.0197 6.1008 20.1555 6.93233 21.7559 8.4587L26.1812 4.03338C23.3791 1.40211 19.66 -0.0445186 15.8099 0.00104453C9.94937 0.00104453 4.59001 3.30437 1.95874 8.54413L7.10737 12.5366C8.33188 8.86307 11.7662 6.13498 15.8099 6.13498Z" fill="#EA4335"/>
</g>
<defs>
<clipPath id="clip0_65_312">
<rect width="31" height="31" fill="white"/>
</clipPath>
</defs>
</svg>
