<svg width="22" height="22" viewBox="0 0 22 22" fill="none" xmlns="http://www.w3.org/2000/svg">
<path d="M3.905 17.1875C5.06 16.3808 6.20583 15.7621 7.3425 15.3313C8.47917 14.9004 9.69833 14.685 11 14.685C12.3017 14.685 13.5254 14.9004 14.6713 15.3313C15.8171 15.7621 16.9675 16.3808 18.1225 17.1875C18.9292 16.1975 19.5021 15.1983 19.8412 14.19C20.1804 13.1817 20.35 12.1183 20.35 11C20.35 8.34167 19.4562 6.11875 17.6688 4.33125C15.8813 2.54375 13.6583 1.65 11 1.65C8.34167 1.65 6.11875 2.54375 4.33125 4.33125C2.54375 6.11875 1.65 8.34167 1.65 11C1.65 12.1183 1.82417 13.1817 2.1725 14.19C2.52083 15.1983 3.09833 16.1975 3.905 17.1875ZM10.9949 11.825C9.93496 11.825 9.04292 11.4612 8.31875 10.7336C7.59458 10.0061 7.2325 9.11231 7.2325 8.05238C7.2325 6.99246 7.59629 6.10042 8.32386 5.37625C9.05144 4.65208 9.94519 4.29 11.0051 4.29C12.065 4.29 12.9571 4.65379 13.6812 5.38137C14.4054 6.10894 14.7675 7.00269 14.7675 8.06262C14.7675 9.12254 14.4037 10.0146 13.6761 10.7387C12.9486 11.4629 12.0548 11.825 10.9949 11.825ZM11.0129 22C9.50096 22 8.07583 21.7113 6.7375 21.1337C5.39917 20.5562 4.23042 19.7679 3.23125 18.7687C2.23208 17.7696 1.44375 16.603 0.86625 15.2689C0.28875 13.9349 0 12.5095 0 10.9927C0 9.47589 0.28875 8.05292 0.86625 6.72375C1.44375 5.39458 2.23208 4.23042 3.23125 3.23125C4.23042 2.23208 5.39702 1.44375 6.73106 0.86625C8.06511 0.28875 9.49052 0 11.0073 0C12.5241 0 13.9471 0.28875 15.2762 0.86625C16.6054 1.44375 17.7696 2.23208 18.7687 3.23125C19.7679 4.23042 20.5562 5.39488 21.1337 6.72463C21.7113 8.05438 22 9.47522 22 10.9871C22 12.499 21.7113 13.9242 21.1337 15.2625C20.5562 16.6008 19.7679 17.7696 18.7687 18.7687C17.7696 19.7679 16.6051 20.5562 15.2754 21.1337C13.9456 21.7113 12.5248 22 11.0129 22ZM11 20.35C12.0083 20.35 12.9937 20.2033 13.9563 19.91C14.9187 19.6167 15.8675 19.1033 16.8025 18.37C15.8675 17.71 14.9142 17.2058 13.9425 16.8575C12.9708 16.5092 11.99 16.335 11 16.335C10.01 16.335 9.02917 16.5092 8.0575 16.8575C7.08583 17.2058 6.1325 17.71 5.1975 18.37C6.1325 19.1033 7.08125 19.6167 8.04375 19.91C9.00625 20.2033 9.99167 20.35 11 20.35ZM11 10.175C11.6233 10.175 12.1321 9.97792 12.5262 9.58375C12.9204 9.18958 13.1175 8.68083 13.1175 8.0575C13.1175 7.43417 12.9204 6.92542 12.5262 6.53125C12.1321 6.13708 11.6233 5.94 11 5.94C10.3767 5.94 9.86792 6.13708 9.47375 6.53125C9.07958 6.92542 8.8825 7.43417 8.8825 8.0575C8.8825 8.68083 9.07958 9.18958 9.47375 9.58375C9.86792 9.97792 10.3767 10.175 11 10.175Z" fill="#B9B9B9"/>
</svg>
