<svg width="22" height="22" viewBox="0 0 22 22" fill="none" xmlns="http://www.w3.org/2000/svg">
<path d="M1.83333 22C1.34444 22 0.916667 21.835 0.55 21.505C0.183333 21.175 0 20.79 0 20.35V3.3C0 2.86 0.183333 2.475 0.55 2.145C0.916667 1.815 1.34444 1.65 1.83333 1.65H3.81944V0H5.80556V1.65H16.1944V0H18.1806V1.65H20.1667C20.6556 1.65 21.0833 1.815 21.45 2.145C21.8167 2.475 22 2.86 22 3.3V20.35C22 20.79 21.8167 21.175 21.45 21.505C21.0833 21.835 20.6556 22 20.1667 22H1.83333ZM1.83333 20.35H20.1667V8.525H1.83333V20.35ZM1.83333 6.875H20.1667V3.3H1.83333V6.875ZM11 13.2C10.6537 13.2 10.3634 13.0946 10.1292 12.8837C9.89491 12.6729 9.77778 12.4117 9.77778 12.1C9.77778 11.7883 9.89491 11.5271 10.1292 11.3162C10.3634 11.1054 10.6537 11 11 11C11.3463 11 11.6366 11.1054 11.8708 11.3162C12.1051 11.5271 12.2222 11.7883 12.2222 12.1C12.2222 12.4117 12.1051 12.6729 11.8708 12.8837C11.6366 13.0946 11.3463 13.2 11 13.2ZM6.11111 13.2C5.76481 13.2 5.47454 13.0946 5.24028 12.8837C5.00602 12.6729 4.88889 12.4117 4.88889 12.1C4.88889 11.7883 5.00602 11.5271 5.24028 11.3162C5.47454 11.1054 5.76481 11 6.11111 11C6.45741 11 6.74769 11.1054 6.98194 11.3162C7.2162 11.5271 7.33333 11.7883 7.33333 12.1C7.33333 12.4117 7.2162 12.6729 6.98194 12.8837C6.74769 13.0946 6.45741 13.2 6.11111 13.2ZM15.8889 13.2C15.5426 13.2 15.2523 13.0946 15.0181 12.8837C14.7838 12.6729 14.6667 12.4117 14.6667 12.1C14.6667 11.7883 14.7838 11.5271 15.0181 11.3162C15.2523 11.1054 15.5426 11 15.8889 11C16.2352 11 16.5255 11.1054 16.7597 11.3162C16.994 11.5271 17.1111 11.7883 17.1111 12.1C17.1111 12.4117 16.994 12.6729 16.7597 12.8837C16.5255 13.0946 16.2352 13.2 15.8889 13.2ZM11 17.6C10.6537 17.6 10.3634 17.4946 10.1292 17.2837C9.89491 17.0729 9.77778 16.8117 9.77778 16.5C9.77778 16.1883 9.89491 15.9271 10.1292 15.7162C10.3634 15.5054 10.6537 15.4 11 15.4C11.3463 15.4 11.6366 15.5054 11.8708 15.7162C12.1051 15.9271 12.2222 16.1883 12.2222 16.5C12.2222 16.8117 12.1051 17.0729 11.8708 17.2837C11.6366 17.4946 11.3463 17.6 11 17.6ZM6.11111 17.6C5.76481 17.6 5.47454 17.4946 5.24028 17.2837C5.00602 17.0729 4.88889 16.8117 4.88889 16.5C4.88889 16.1883 5.00602 15.9271 5.24028 15.7162C5.47454 15.5054 5.76481 15.4 6.11111 15.4C6.45741 15.4 6.74769 15.5054 6.98194 15.7162C7.2162 15.9271 7.33333 16.1883 7.33333 16.5C7.33333 16.8117 7.2162 17.0729 6.98194 17.2837C6.74769 17.4946 6.45741 17.6 6.11111 17.6ZM15.8889 17.6C15.5426 17.6 15.2523 17.4946 15.0181 17.2837C14.7838 17.0729 14.6667 16.8117 14.6667 16.5C14.6667 16.1883 14.7838 15.9271 15.0181 15.7162C15.2523 15.5054 15.5426 15.4 15.8889 15.4C16.2352 15.4 16.5255 15.5054 16.7597 15.7162C16.994 15.9271 17.1111 16.1883 17.1111 16.5C17.1111 16.8117 16.994 17.0729 16.7597 17.2837C16.5255 17.4946 16.2352 17.6 15.8889 17.6Z" fill="#B9B9B9"/>
</svg>
