<svg width="22" height="22" viewBox="0 0 22 22" fill="none" xmlns="http://www.w3.org/2000/svg">
<path d="M20.3264 8.17914L19.1926 7.0454L20.4074 5.83067L16.1693 1.59264L14.9546 2.80736L13.7939 1.64663L14.6037 0.809816C15.0176 0.39591 15.5305 0.193456 16.1423 0.202454C16.7542 0.211452 17.2671 0.422904 17.681 0.83681L21.1632 4.31902C21.5771 4.73292 21.784 5.24131 21.784 5.84417C21.784 6.44703 21.5771 6.95542 21.1632 7.36933L20.3264 8.17914ZM7.36933 21.1632C6.95542 21.5771 6.44703 21.784 5.84417 21.784C5.24131 21.784 4.73292 21.5771 4.31902 21.1632L0.458896 17.3031C0.152965 16.9903 0 16.6062 0 16.1507C0 15.6952 0.152965 15.3145 0.458896 15.0086L1.64663 13.8209L2.80736 14.9546L1.59264 16.1693L5.83067 20.4074L7.0454 19.1926L8.17914 20.3534L7.36933 21.1632ZM18.0859 12.8491L20.3804 10.5546L11.4454 1.61963L9.15092 3.91411L18.0859 12.8491ZM10.5276 20.4074L12.8491 18.0859L3.91411 9.15092L1.59264 11.4724L10.5276 20.4074ZM10.7706 13.7129L13.7129 10.7706L11.2294 8.28712L8.28712 11.2294L10.7706 13.7129ZM11.6613 21.5411C11.3566 21.847 10.979 22 10.5285 22C10.078 22 9.6998 21.847 9.39386 21.5411L0.458896 12.6061C0.152965 12.3014 0 11.9238 0 11.4733C0 11.0228 0.152965 10.6446 0.458896 10.3387L2.75337 8.01718C3.06611 7.71125 3.45022 7.55828 3.90572 7.55828C4.36121 7.55828 4.74192 7.71125 5.04785 8.01718L7.12638 10.0957L10.0957 7.12638L8.01718 5.04785C7.71125 4.74311 7.55828 4.36549 7.55828 3.915C7.55828 3.46451 7.71125 3.0863 8.01718 2.78037L10.3117 0.458896C10.6244 0.152965 11.0085 0 11.464 0C11.9195 0 12.3002 0.152965 12.6061 0.458896L21.5411 9.39386C21.847 9.7066 22 10.0907 22 10.5462C22 11.0017 21.847 11.3824 21.5411 11.6883L19.2196 13.9828C18.9149 14.2888 18.5373 14.4417 18.0868 14.4417C17.6363 14.4417 17.2581 14.2888 16.9521 13.9828L14.8736 11.9043L11.9043 14.8736L13.9828 16.9521C14.2888 17.2649 14.4417 17.649 14.4417 18.1045C14.4417 18.56 14.2888 18.9407 13.9828 19.2466L11.6613 21.5411Z" fill="#B9B9B9"/>
</svg>
