<svg width="22" height="22" viewBox="0 0 22 22" fill="none" xmlns="http://www.w3.org/2000/svg">
<path d="M11 22C7.93571 22 5.33631 21.2137 3.20179 19.641C1.06726 18.0683 0 16.1531 0 13.8954C0 11.9658 0.805357 10.2629 2.41607 8.78668C4.02679 7.31049 6.10238 6.36978 8.64286 5.96455C7.96191 5.86807 7.30714 5.72817 6.67857 5.54485C6.05 5.36154 5.48691 5.08656 4.98929 4.71992C4.25595 4.16032 3.76488 3.51389 3.51607 2.78062C3.26726 2.04735 3.14286 1.29478 3.14286 0.522921V0.00191371C5.39524 -0.0366794 7.33333 0.508449 8.95714 1.6373C10.581 2.76615 11.3798 4.15068 11.3536 5.79088C11.7202 4.96113 12.2375 4.18927 12.9054 3.4753C13.5732 2.76132 14.3262 2.09559 15.1643 1.4781C15.4 1.30443 15.675 1.2176 15.9893 1.2176C16.3036 1.2176 16.5786 1.30443 16.8143 1.4781C17.05 1.65177 17.1679 1.85438 17.1679 2.08594C17.1679 2.3175 17.05 2.52012 16.8143 2.69378C16.1595 3.1762 15.5702 3.69721 15.0464 4.25681C14.5226 4.81641 14.0774 5.40495 13.7107 6.02244C16.1726 6.48556 18.1696 7.44556 19.7018 8.90246C21.2339 10.3593 22 12.0237 22 13.8954C22 16.1531 20.9327 18.0683 18.7982 19.641C16.6637 21.2137 14.0643 22 11 22ZM11 20.2633C13.4095 20.2633 15.4524 19.6458 17.1286 18.4108C18.8048 17.1759 19.6429 15.6707 19.6429 13.8954C19.6429 12.1202 18.8048 10.615 17.1286 9.38004C15.4524 8.14507 13.4095 7.52757 11 7.52757C8.59048 7.52757 6.54762 8.14507 4.87143 9.38004C3.19524 10.615 2.35714 12.1202 2.35714 13.8954C2.35714 15.6707 3.19524 17.1759 4.87143 18.4108C6.54762 19.6458 8.59048 20.2633 11 20.2633Z" fill="#B9B9B9"/>
</svg>
