<svg width="300" height="274" viewBox="0 0 300 274" fill="none" xmlns="http://www.w3.org/2000/svg">
<path d="M130.391 220.221L165.672 180.388C124.132 144.952 61.6398 149.194 25.2725 190.269C7.11474 210.754 -1.16231 236.62 0.130981 262.02C3.597 255.916 6.23531 242.518 18.8061 227.567C51.397 188.768 95.9378 194.562 130.391 220.221Z" fill="url(#paint0_linear_63_116)"/>
<path d="M130.391 220.221L154.86 209.202C113.268 173.766 65.5195 165.955 26.3588 204.443C9.75293 220.79 0.906833 244.69 0.130859 262.02C3.59687 255.916 6.23518 242.518 18.806 227.567C51.3968 188.768 95.9377 194.562 130.391 220.221Z" fill="url(#paint1_linear_63_116)"/>
<path d="M195.78 96.0138C192.107 96.5828 190.813 91.151 187.037 91.7201C151.135 97.0484 109.388 77.3387 109.388 40.3506C109.388 29.5387 113.164 14.64 124.701 0C105.405 13.0881 92.7305 35.2292 92.7305 60.319C92.7305 100.566 125.373 133.209 165.62 133.209C176.38 133.209 186.572 130.829 195.78 126.691V96.0138Z" fill="url(#paint2_linear_63_116)"/>
<path d="M195.78 96.0138C192.107 96.5828 191.589 113.654 187.813 114.223C151.911 119.552 102.301 96.4276 103.335 48.4725C103.542 37.6606 111.25 11.7431 124.701 0C105.405 13.0881 92.7305 35.2292 92.7305 60.319C92.7305 100.566 125.373 133.209 165.62 133.209C176.38 133.209 186.572 130.829 195.78 126.691V96.0138Z" fill="url(#paint3_linear_63_116)"/>
<path d="M206.799 252.14C175.191 236.361 162.309 197.977 178.088 166.369C193.866 134.709 232.251 121.88 263.859 137.658C285.637 148.47 298.467 169.99 299.295 192.648C304.002 155.039 284.913 116.862 249.063 98.9625C203.591 76.304 148.394 94.7722 125.735 140.244C103.025 185.665 121.545 240.914 166.965 263.572C202.867 281.471 244.821 273.712 272.032 247.277C253.46 260.313 228.526 262.952 206.799 252.14Z" fill="url(#paint4_linear_63_116)"/>
<path d="M206.799 252.14C182.123 239.828 168.88 213.703 171.725 187.786C166.552 192.752 162.051 198.701 158.688 205.53C150.308 222.342 149.998 241.121 156.309 257.313C159.671 259.641 163.241 261.71 166.965 263.572C202.867 281.471 244.821 273.712 272.032 247.277C253.461 260.313 228.526 262.952 206.799 252.14Z" fill="url(#paint5_linear_63_116)"/>
<path d="M264.427 135.485C289.155 151.004 297.898 168.748 299.553 190.217C303.122 153.384 284.137 116.448 249.063 98.9625C203.591 76.304 148.393 94.7722 125.735 140.244C122.217 147.228 119.682 154.47 118.13 161.816C148.962 125.656 212.696 102.998 264.427 135.485Z" fill="url(#paint6_linear_63_116)"/>
<path d="M235.975 55.0941C235.975 71.5965 222.577 84.9949 206.074 84.9949C189.572 84.9949 176.173 71.5965 176.173 55.0941C176.173 38.5917 189.572 25.245 206.074 25.245C222.577 25.245 235.975 38.5917 235.975 55.0941Z" fill="url(#paint7_linear_63_116)"/>
<path d="M206.074 25.245C205.178 25.245 204.281 25.2795 203.384 25.3485C199.66 30.3147 197.487 36.4707 197.487 43.1958C197.487 59.6982 210.885 73.045 227.388 73.045C228.284 73.045 229.181 73.0105 230.078 72.9415C233.751 67.9753 235.975 61.7675 235.975 55.0941C235.975 38.5917 222.577 25.245 206.074 25.245Z" fill="url(#paint8_linear_63_116)"/>
<defs>
<linearGradient id="paint0_linear_63_116" x1="91.9028" y1="115.051" x2="165.672" y2="180.388" gradientUnits="userSpaceOnUse">
<stop stop-color="#1FD1BC"/>
<stop offset="0.876" stop-color="#006199"/>
<stop offset="1" stop-color="#004380"/>
</linearGradient>
<linearGradient id="paint1_linear_63_116" x1="80.3665" y1="143.193" x2="154.86" y2="209.202" gradientUnits="userSpaceOnUse">
<stop stop-color="#1FB8BC"/>
<stop offset="0.876" stop-color="#006199"/>
<stop offset="1" stop-color="#004380"/>
</linearGradient>
<linearGradient id="paint2_linear_63_116" x1="92.7305" y1="0" x2="195.78" y2="0" gradientUnits="userSpaceOnUse">
<stop stop-color="#1FD1BC"/>
<stop offset="0.876" stop-color="#006199"/>
<stop offset="1" stop-color="#004380"/>
</linearGradient>
<linearGradient id="paint3_linear_63_116" x1="92.7305" y1="0" x2="195.78" y2="0" gradientUnits="userSpaceOnUse">
<stop stop-color="#1FB8BC"/>
<stop offset="0.876" stop-color="#006199"/>
<stop offset="1" stop-color="#004380"/>
</linearGradient>
<linearGradient id="paint4_linear_63_116" x1="28.7386" y1="244.121" x2="157.447" y2="15.8816" gradientUnits="userSpaceOnUse">
<stop stop-color="#FD2103"/>
<stop offset="1" stop-color="#FFD41B"/>
</linearGradient>
<linearGradient id="paint5_linear_63_116" x1="151.963" y1="187.786" x2="272.032" y2="187.786" gradientUnits="userSpaceOnUse">
<stop stop-color="#FFD41B"/>
<stop offset="1" stop-color="#FD2103"/>
</linearGradient>
<linearGradient id="paint6_linear_63_116" x1="118.13" y1="89.2887" x2="299.967" y2="89.2887" gradientUnits="userSpaceOnUse">
<stop stop-color="#FD2103"/>
<stop offset="1" stop-color="#FFD41B"/>
</linearGradient>
<linearGradient id="paint7_linear_63_116" x1="176.173" y1="25.245" x2="235.975" y2="25.245" gradientUnits="userSpaceOnUse">
<stop stop-color="#FD2103"/>
<stop offset="1" stop-color="#FFD41B"/>
</linearGradient>
<linearGradient id="paint8_linear_63_116" x1="222.215" y1="-7.96667" x2="272.084" y2="60.2673" gradientUnits="userSpaceOnUse">
<stop stop-color="#FFD41B"/>
<stop offset="1" stop-color="#FD2103"/>
</linearGradient>
</defs>
</svg>
