<svg width="25" height="25" viewBox="0 0 25 25" fill="none" xmlns="http://www.w3.org/2000/svg">
<path fill-rule="evenodd" clip-rule="evenodd" d="M23.6983 1.08901C22.2463 -0.362996 19.8922 -0.363009 18.4402 1.08901L16.3583 3.17089L6.55983 12.9693C6.40099 13.1281 6.28832 13.3272 6.23384 13.5451L4.99447 18.5025C4.88888 18.9249 5.01263 19.3717 5.32046 19.6794C5.6283 19.9873 6.07508 20.1111 6.49743 20.0055L11.4548 18.7661C11.6728 18.7116 11.8718 18.599 12.0307 18.4401L21.7578 8.71299L23.911 6.55983C25.363 5.10783 25.363 2.75365 23.911 1.30165L23.6983 1.08901ZM20.1929 2.84173C20.6768 2.35773 21.4616 2.35773 21.9456 2.84173L22.1583 3.05437C22.6422 3.53838 22.6422 4.32311 22.1583 4.80711L20.8984 6.06695L18.9707 4.06389L20.1929 2.84173ZM17.2176 5.81694L19.1454 7.81999L10.5207 16.4447L7.90018 17.0998L8.55529 14.4793L17.2176 5.81694ZM2.47873 7.64884C2.47873 6.96436 3.03362 6.40947 3.7181 6.40947H9.91493C10.5994 6.40947 11.1543 5.85459 11.1543 5.1701C11.1543 4.48563 10.5994 3.93074 9.91493 3.93074H3.7181C1.66465 3.93074 0 5.59539 0 7.64884V21.2818C0 23.3353 1.66465 24.9999 3.7181 24.9999H17.3511C19.4046 24.9999 21.0692 23.3353 21.0692 21.2818V15.085C21.0692 14.4006 20.5144 13.8456 19.8299 13.8456C19.1454 13.8456 18.5905 14.4006 18.5905 15.085V21.2818C18.5905 21.9663 18.0356 22.5212 17.3511 22.5212H3.7181C3.03362 22.5212 2.47873 21.9663 2.47873 21.2818V7.64884Z" fill="#B9B9B9"/>
</svg>
